<?xml version="1.0" standalone="no"?><!DOCTYPE svg PUBLIC "-//W3C//DTD SVG 1.1//EN" "http://www.w3.org/Graphics/SVG/1.1/DTD/svg11.dtd"><svg t="1583245792102" class="icon" viewBox="0 0 1024 1024" version="1.1" xmlns="http://www.w3.org/2000/svg" p-id="1803" xmlns:xlink="http://www.w3.org/1999/xlink" width="200" height="200"><defs><style type="text/css"></style></defs><path d="M175.397 531.25c-0.14 0-0.272-0.005-0.412-0.019-2.631-0.221-4.598-2.537-4.372-5.172 0.599-7.218 15.616-176.803 91.055-176.803s90.455 169.584 91.052 176.803a4.787 4.787 0 0 1-4.37 5.172c-2.678 0.192-4.963-1.732-5.178-4.376-0.14-1.68-14.82-168.012-81.503-168.012-66.713 0-81.363 166.331-81.503 168.012a4.792 4.792 0 0 1-4.769 4.395z" fill="#3A5CAC" p-id="1804"></path><path d="M548.078 404.208c-0.208 0-0.403-0.007-0.611-0.028-3.901-0.327-6.818-3.763-6.484-7.669 0.889-10.703 23.158-262.193 135.031-262.193S810.156 385.805 811.041 396.51c0.334 3.909-2.579 7.344-6.48 7.669-3.971 0.284-7.36-2.568-7.678-6.489-0.208-2.492-21.978-249.156-120.867-249.156-98.934 0-120.659 246.664-120.867 249.156a7.104 7.104 0 0 1-7.071 6.518z" fill="#F3797D" p-id="1805"></path><path d="M423.934 487.716h-316.58l-14.217 28.419h328.716z" fill="#EC87C0" p-id="1806"></path><path d="M423.934 487.716h-316.58l-14.217 28.419h328.716z" fill="#3A5CAC" p-id="1807"></path><path d="M423.934 487.716h-316.58l-14.217 28.419h328.716z" fill="" p-id="1808"></path><path d="M394.808 885.761H64.704l28.433-369.626h328.716z" fill="#d4237a" p-id="1809" data-spm-anchor-id="a313x.7781069.0.i0" class="selected"></path><path d="M93.137 516.135L64.704 885.761h28.433l28.433-369.626z" fill="#FFFFFF" p-id="1810"></path><path d="M960.355 885.761H391.683l42.649-526.007h483.376z" fill="#F3797D" p-id="1811"></path><path d="M393.224 516.135L363.25 885.761h31.558l27.045-369.626z" fill="" p-id="1812"></path><path d="M434.332 359.754l-42.649 526.007h28.433l42.649-526.007z" fill="#FFFFFF" p-id="1813"></path><path d="M917.708 359.754l42.647 526.007h-28.431l-42.651-526.007z" fill="" p-id="1814"></path><path d="M917.708 359.754H434.332l14.217-28.433h454.94z" fill="#AC92EC" p-id="1815"></path><path d="M917.708 359.754H434.332l14.217-28.433h454.94z" fill="#F3797D" p-id="1816"></path><path d="M917.708 359.754H434.332l14.217-28.433h454.94z" fill="" p-id="1817"></path><path d="M676.012 555.147c-26.019-26.003-68.193-26.003-94.213 0-26.042 26.032-26.042 68.21 0 94.213l94.213 94.239 94.213-94.239c26.016-26.003 26.016-68.181 0-94.213-26.018-26.004-68.222-26.004-94.213 0z" fill="#3A5CAC" p-id="1818"></path><path d="M610.236 649.359c-23.671-34.293-26.046-68.181 0-94.213 9.356-9.358 20.849-15.216 32.889-17.84-21.423-4.664-44.664 1.194-61.324 17.84-26.042 26.032-26.042 68.21 0 94.213l94.213 94.239-65.778-94.239z" fill="#4568AD" p-id="1819"></path><path d="M741.79 649.359c23.671-34.293 26.046-68.181 0-94.213-9.356-9.358-20.852-15.216-32.889-17.84 21.423-4.664 44.664 1.194 61.324 17.84 26.042 26.032 26.042 68.21 0 94.213l-94.213 94.239 65.778-94.239z" fill="" p-id="1820"></path><path d="M548.078 437.943c-0.208 0-0.403-0.007-0.611-0.028-3.901-0.327-6.818-3.763-6.484-7.669 0.889-10.704 23.158-262.193 135.031-262.193S810.156 419.54 811.041 430.245c0.334 3.909-2.579 7.344-6.48 7.669-3.971 0.284-7.36-2.568-7.678-6.489-0.208-2.492-21.978-249.156-120.867-249.156-98.934 0-120.659 246.664-120.867 249.156a7.104 7.104 0 0 1-7.071 6.518z" fill="#F3797D" p-id="1821"></path><path d="M175.397 554.689c-0.14 0-0.272-0.005-0.412-0.019-2.631-0.221-4.598-2.537-4.372-5.172 0.599-7.218 15.616-176.803 91.055-176.803s90.455 169.584 91.052 176.803a4.787 4.787 0 0 1-4.37 5.172c-2.678 0.192-4.963-1.732-5.178-4.376-0.14-1.68-14.82-168.012-81.503-168.012-66.713 0-81.363 166.331-81.503 168.012a4.792 4.792 0 0 1-4.769 4.395z" fill="#3A5CAC" p-id="1822"></path></svg>