<?xml version="1.0" standalone="no"?><!DOCTYPE svg PUBLIC "-//W3C//DTD SVG 1.1//EN" "http://www.w3.org/Graphics/SVG/1.1/DTD/svg11.dtd"><svg t="1582873951088" class="icon" viewBox="0 0 1024 1024" version="1.1" xmlns="http://www.w3.org/2000/svg" p-id="6345" xmlns:xlink="http://www.w3.org/1999/xlink" width="200" height="200"><defs><style type="text/css"></style></defs><path d="M952.832 449.024l-198.144-73.728-35.84-35.84 198.144 72.192zM628.736 957.952L445.44 854.528l4.608-172.032 185.344 94.208z" fill="#B72320" p-id="6346"></path><path d="M343.552 1016.832L169.984 906.24 99.328 413.696l176.128 83.456z" fill="#F45A56" p-id="6347"></path><path d="M446.464 4.608l-29.696 2.048L25.088 439.296l173.056 86.016L609.28 63.488l31.232-3.072z" fill="#FF6D69" p-id="6348"></path><path d="M224.256 553.984l-173.568-87.04-25.6-27.648 173.056 86.016z" fill="#D82723" p-id="6349"></path><path d="M640.512 60.416l335.872 355.84-23.552 32.768-35.84-37.376-91.648 505.344-196.608 40.96 6.656-181.248-83.456 14.848-7.168 183.808-201.216 41.472L275.456 497.152l-51.2 56.832-26.112-28.672L609.28 63.488z" fill="#F44336" p-id="6350"></path></svg>