<?xml version="1.0" standalone="no"?><!DOCTYPE svg PUBLIC "-//W3C//DTD SVG 1.1//EN" "http://www.w3.org/Graphics/SVG/1.1/DTD/svg11.dtd"><svg t="1582873855667" class="icon" viewBox="0 0 1024 1024" version="1.1" xmlns="http://www.w3.org/2000/svg" p-id="3076" xmlns:xlink="http://www.w3.org/1999/xlink" width="200" height="200"><defs><style type="text/css"></style></defs><path d="M644.32 525.5104a244.928 244.928 0 1 0-271.0272 0A413.3696 413.3696 0 0 0 96 915.2768a31.9424 31.9424 0 0 0 63.8848 0 349.2608 349.2608 0 0 1 346.7776-348.8c0.7168 0 1.4272 0.0512 2.1504 0.0512s1.4336-0.0512 2.1504-0.0512a349.2608 349.2608 0 0 1 346.7776 348.8 31.9424 31.9424 0 0 0 63.8784 0 413.3696 413.3696 0 0 0-277.2992-389.7664zM327.7632 321.6576a181.0432 181.0432 0 1 1 183.1936 180.9472c-0.7232 0-1.4336-0.0512-2.1504-0.0512s-1.4336 0.0512-2.1504 0.0512a181.2032 181.2032 0 0 1-178.8928-180.9472z" fill="#FB3F50" p-id="3077"></path><path d="M723.2 921.6H491.6224a32 32 0 1 1 0-64H723.2a32 32 0 0 1 0 64z m-352 0H307.2a32 32 0 0 1 0-64h64a32 32 0 0 1 0 64z" fill="#FFCA1E" p-id="3078"></path></svg>